<?xml version="1.0" standalone="no"?>
<!DOCTYPE svg PUBLIC "-//W3C//DTD SVG 20010904//EN"
 "http://www.w3.org/TR/2001/REC-SVG-20010904/DTD/svg10.dtd">
<svg version="1.0" xmlns="http://www.w3.org/2000/svg"
 width="956.000000pt" height="956.000000pt" viewBox="0 0 956.000000 956.000000"
 preserveAspectRatio="xMidYMid meet">
<metadata>
Created by potrace 1.11, written by Peter Selinger 2001-2013
</metadata>
<g transform="translate(0.000000,956.000000) scale(0.100000,-0.100000)"
fill="#000000" stroke="none">
<path d="M4260 7969 c-85 -33 -164 -65 -175 -69 -11 -5 -63 -25 -115 -45 -114
-44 -188 -73 -215 -85 -11 -5 -38 -16 -60 -23 -22 -8 -224 -86 -450 -174 -225
-89 -471 -184 -545 -213 -74 -28 -144 -56 -155 -61 -11 -5 -32 -13 -48 -19
l-27 -10 29 -59 c87 -170 196 -497 226 -674 3 -18 10 -48 15 -67 5 -19 11 -53
15 -75 3 -22 10 -65 15 -95 5 -30 12 -80 16 -110 3 -30 7 -66 9 -80 3 -14 7
-52 10 -85 3 -33 8 -77 10 -98 27 -236 27 -1078 0 -1327 -2 -19 -6 -71 -10
-115 -3 -44 -8 -100 -10 -125 -10 -105 -16 -167 -21 -205 -2 -22 -7 -62 -9
-90 -6 -53 -43 -343 -50 -385 -2 -14 -7 -45 -11 -70 -3 -25 -8 -58 -10 -75 -1
-16 -14 -97 -28 -180 -14 -82 -28 -163 -31 -180 -11 -64 -37 -205 -60 -320
-13 -66 -26 -131 -28 -145 -3 -14 -17 -79 -32 -145 -15 -66 -29 -128 -31 -138
-2 -10 -6 -27 -9 -38 -7 -20 0 -20 60 6 17 7 116 45 220 85 105 40 235 91 290
112 55 22 134 52 175 67 101 38 310 119 335 131 11 4 166 65 345 133 l325 125
3 530 2 531 -56 11 c-264 55 -481 207 -614 431 -54 91 -100 209 -115 297 l-5
32 1050 0 1050 0 -21 -52 c-83 -211 -277 -463 -442 -571 -145 -96 -344 -163
-494 -166 l-23 -1 0 -860 0 -860 43 16 c23 9 51 20 62 25 11 5 74 29 140 55
66 25 181 70 255 99 74 29 236 92 360 141 124 48 277 107 340 132 63 24 133
51 155 59 22 8 54 21 70 28 17 7 91 36 165 65 74 28 144 55 155 60 11 5 49 20
85 34 36 13 77 29 92 35 l27 10 -27 53 c-66 124 -157 375 -211 579 -31 114
-95 425 -105 509 -3 25 -8 55 -10 67 -3 12 -12 93 -20 180 -9 87 -18 175 -21
196 -22 180 -22 735 0 1087 9 148 22 292 30 340 2 14 7 55 10 91 3 36 8 76 10
90 2 13 7 44 9 69 3 25 8 63 11 85 3 22 12 81 20 130 8 50 17 110 20 135 32
223 155 800 239 1120 25 91 37 137 42 152 5 16 2 17 -23 7 -15 -6 -62 -24
-103 -39 -41 -16 -178 -69 -305 -118 -126 -49 -338 -130 -470 -181 -132 -50
-249 -96 -260 -101 -11 -5 -85 -34 -165 -64 -80 -31 -208 -80 -285 -110 l-140
-54 -3 -841 -2 -841 -165 0 -165 0 -2 1180 -3 1179 -155 -60z m-370 -1900 c88
-34 170 -120 195 -204 9 -27 18 -83 22 -122 l6 -73 -342 0 -341 0 0 54 c0 69
32 172 69 223 64 89 178 143 291 139 36 -2 81 -9 100 -17z m1416 5 c99 -33
173 -108 212 -214 7 -19 16 -70 19 -112 l6 -78 -342 0 -341 0 -1 23 c-10 158
46 279 159 342 95 53 201 68 288 39z"/>
</g>
</svg>
